# xmcd
#
# Track frame offsets:
#	150
#	12383
#	25629
#	37877
#	50500
#	63633
#	76376
#	89284
#	102739
#	115872
#	128083
#	139221
# Disc length: 2029 seconds
# Revision: 1
# Processed by: cddbd v1.5.2PL0 Copyright (c) Steve Scherf et al.
#
# Submitted via: libkcddb 0.21
#
DISCID=9d07eb0c
DTITLE=BB King - The Best Of BB King
DYEAR=1901
DGENRE=Blues
TTITLE0=Please Love Me
TTITLE1=You Upset Me Baby
TTITLE2=Every Day I Have The Blues
TTITLE3=Bad Luck
TTITLE4=3 O' Clock Blues
TTITLE5=Blind Love
TTITLE6=Woke Up This Morning
TTITLE7=You Know I Love You
TTITLE8=Sweet Little Angel
TTITLE9=Ten Long Years
TTITLE10=Did You Ever Love A Woman
TTITLE11=Crying Won't Help You
EXTD=
EXTT0=
EXTT1=
EXTT2=
EXTT3=
EXTT4=
EXTT5=
EXTT6=
EXTT7=
EXTT8=
EXTT9=
EXTT10=
EXTT11=
PLAYORDER=
